<?xml version="1.0" standalone="no"?><!DOCTYPE svg PUBLIC "-//W3C//DTD SVG 1.1//EN" "http://www.w3.org/Graphics/SVG/1.1/DTD/svg11.dtd"><svg t="1726495215606" class="icon" viewBox="0 0 1024 1024" version="1.1" xmlns="http://www.w3.org/2000/svg" p-id="17888" xmlns:xlink="http://www.w3.org/1999/xlink" width="200" height="200"><path d="M478.21255111 287.13870222c-59.18628978-14.21403022-118.13956267-27.72900978-171.966464-34.02046577-51.49673245-6.05843911-97.86709333-5.82542222-135.61582933 6.52447288v481.41289245c96.93502578-17.94230045 195.035136 2.56318578 292.66921244 23.068672l15.14609778 3.02921955v-480.01479111z m264.47416889 328.55381333c-3.26223645-43.34114133-6.75748978-86.91529955-10.01972622-130.48945777-10.48576-0.93206755-26.56392533-0.93206755-37.04968533-1.86413511-3.26223645 68.50696533-1.39810133 135.84884622-4.4273209 204.12279466-9.78670933-21.43755378-22.60263822-41.71002311-56.85612088-51.96276622-6.99050667 7.45654045-9.08765867 9.78670933-16.31118222 17.01023289 23.30168889 25.86487467 34.95253333 59.88534045 44.040192 91.80865422l7.45654044 72.46825245c8.15559111 16.07816533 15.84514845 32.38934755 24.00073956 48.234496 46.60337778-1.39810133 84.35211378-2.79620267 130.95549155-4.42732089 4.66033778-9.78670933 9.32067555-19.80643555 13.98101333-29.59314489 7.92257422-54.99198578 19.80643555-159.84958578 19.10738489-215.07458844-13.74799645-3.02921955-20.73850311-6.05843911-34.48649955-8.85464178-1.63111822 5.35938845-5.12637155 29.82616178-6.75748978 35.18555022-0.69905067-18.874368-1.39810133-37.98175289-1.86413511-56.85612089-10.95179378-2.33016889-21.90358755-4.42732089-32.85538133-6.75748978-1.16508445 5.12637155-2.097152 10.48576-3.02921956 15.61213156-0.69905067-8.15559111-1.39810133-16.31118222-2.33016889-24.46677333l-30.05917867-4.194304c-1.39810133 17.01023289-2.33016889 33.554432-3.49525333 50.0986311z m137.94599822-324.12649244l62.44852623 12.11687822v544.09443556c-23.76772267-3.49525333-47.30242845-7.68955733-72.70126934-10.95179378l0.23301689-0.93206756c5.12637155-35.88460089 9.55369245-72.46825245 12.81592889-108.58587022 3.72827022-36.81666845 6.99050667-75.03143822 6.52447289-111.84810666l-0.23301689-26.09789156-25.39884089-5.35938844c-5.59240533-1.16508445-11.18481067-2.33016889-16.54419911-4.194304V259.64270933c-37.748736-12.34989511-84.35211378-12.582912-135.84884622-6.52447288-53.82690133 6.52447289-112.78017422 19.80643555-172.19948089 34.25348266v479.78177422l15.14609777-3.02921955c24.93280711-5.12637155 49.63259733-10.25274311 74.79842134-15.14609778l0.23301689 1.86413511 7.45654044 75.497472 2.79620267 5.35938844 3.96128711 7.45654045c-25.63185778 3.26223645-53.12785067 7.68955733-83.18702933 13.28196267v17.47626666c-65.011712 17.47626667-32.85538133 17.47626667-97.86709334 0V852.20465778c-205.520896-38.21476978-291.03809422-18.17531733-382.14769778-4.66033778V303.68290133l56.8561209-11.18481066v-55.22500267l10.2527431-3.96128711c45.20527645-18.40833422 100.89631289-19.57341867 161.94673778-12.34989511 59.41930667 6.99050667 123.96498489 22.36962133 188.27764622 37.748736l10.7187769 2.56318577 10.71877688-2.56318577c64.31266133-15.37911467 128.85833955-30.75822933 188.27764622-37.748736 61.05042489-7.22352355 116.97447822-6.05843911 161.94673778 12.34989511l10.25274312 3.96128711v54.29293511z m-433.64443022 45.43829334v19.80643555c-48.93354667-10.71877689-97.40105955-20.97152-140.27616711-26.09789155-41.01097245-5.12637155-77.12859022-6.05843911-104.39156622 1.39810133v-20.03945245c29.360128-6.52447289 66.17679645-5.82542222 106.954752-0.69905066 42.87510755 5.12637155 90.177536 15.14609778 137.71298133 25.63185778z m0 334.37923555v20.03945245c-48.93354667-10.95179378-97.40105955-21.20453689-140.27616711-26.56392534-41.01097245-5.12637155-77.12859022-5.59240533-104.39156622 1.63111822v-20.27246933c29.360128-6.75748978 66.17679645-5.82542222 106.954752-0.46603378 42.87510755 5.35938845 90.177536 15.14609778 137.71298133 25.63185778z m0-50.56466489v20.03945244c-48.93354667-10.95179378-97.40105955-21.20453689-140.27616711-26.56392533-41.01097245-5.12637155-77.12859022-5.59240533-104.39156622 1.63111823V595.88608c29.360128-6.75748978 66.17679645-5.82542222 106.954752-0.69905067 42.87510755 5.35938845 90.177536 15.14609778 137.71298133 25.63185778z m0-173.13154844v19.80643555c-48.93354667-10.71877689-97.40105955-21.20453689-140.27616711-26.56392533-41.01097245-4.89335467-77.12859022-5.82542222-104.39156622 1.86413511v-20.03945245c29.360128-6.99050667 66.17679645-6.291456 106.954752-0.93206755 42.87510755 5.59240533 90.177536 15.14609778 137.71298133 25.86487467z m0-55.22500267v20.03945245c-48.93354667-10.71877689-97.40105955-21.20453689-140.27616711-26.56392534-41.01097245-4.89335467-77.12859022-5.82542222-104.39156622 1.63111822V367.52952889c29.360128-6.75748978 66.17679645-5.82542222 106.954752-0.69905067 42.87510755 5.35938845 90.177536 15.14609778 137.71298133 25.63185778z m133.05264355 54.99198578v20.03945244c28.66107733-6.99050667 57.32215467-13.28196267 84.35211378-18.874368v-0.69905067l3.26223645 0.2330169c14.680064-2.56318578 29.12711111-5.12637155 42.64209067-6.99050667 38.68080355-5.12637155 72.93428622-5.82542222 98.566144 1.86413511v-20.27246934c-27.72900978-6.99050667-62.68154311-6.291456-101.12932978-0.93206755-39.61287111 5.59240533-83.42004622 15.14609778-127.69325512 25.63185778z m0-110.68302223v19.80643556c45.43829333-10.71877689 90.41055289-20.73850311 130.48945778-26.09789156 38.68080355-5.12637155 72.93428622-6.05843911 98.566144 1.63111823v-20.03945245c-27.72900978-6.75748978-62.68154311-6.05843911-101.12932978-0.93206755-39.845888 5.35938845-83.65306311 14.91308089-127.926272 25.63185777z m0 55.45801956v20.03945244c45.43829333-10.71877689 90.41055289-20.73850311 130.48945778-26.09789155 38.68080355-4.89335467 72.93428622-5.82542222 98.566144 2.097152v-20.27246933c-27.72900978-6.99050667-62.68154311-6.291456-101.12932978-1.16508445-39.845888 5.35938845-83.65306311 14.91308089-127.926272 25.39884089z m0 0" fill="#593BCD" p-id="17889"></path></svg>