<?xml version="1.0" standalone="no"?><!DOCTYPE svg PUBLIC "-//W3C//DTD SVG 1.1//EN" "http://www.w3.org/Graphics/SVG/1.1/DTD/svg11.dtd"><svg t="1726495183946" class="icon" viewBox="0 0 1024 1024" version="1.1" xmlns="http://www.w3.org/2000/svg" p-id="16838" xmlns:xlink="http://www.w3.org/1999/xlink" width="200" height="200"><path d="M514.434844 512.011378m-500.622222 0a500.622222 500.622222 0 1 0 1001.244445 0 500.622222 500.622222 0 1 0-1001.244445 0Z" fill="#6EBFF3" p-id="16839"></path><path d="M734.048711 406.107022a100.443022 100.443022 0 0 0 13.095822-49.732266c0-55.443911-44.6464-100.374756-99.726222-100.374756a99.328 99.328 0 0 0-78.916267 38.991644c68.5056 14.244978 127.362844 54.9888 165.558045 111.115378h-0.011378z m-273.669689-111.115378a99.339378 99.339378 0 0 0-78.927644-38.991644c-55.0912 0-99.726222 44.930844-99.726222 100.374756 0 18.090667 4.755911 35.077689 13.084444 49.732266 38.1952-56.126578 97.052444-96.8704 165.569422-111.115378z m54.055822 30.833778c-122.094933 0-221.070222 98.975289-221.070222 221.0816 0 122.094933 98.975289 221.092978 221.070222 221.092978s221.0816-98.986667 221.0816-221.092978-98.986667-221.0816-221.0816-221.0816z m104.721067 248.126578l-125.451378-0.011378V407.4496l32.3584 0.022756v131.401955h93.092978v35.077689z m0 0" fill="#FFFFFF" p-id="16840"></path><path d="M415.630222 626.210133l24.064 24.052623L321.979733 768l-24.052622-24.041244zM730.999467 743.924622l-24.052623 24.041245-117.691733-117.76 24.052622-24.041245z" fill="#FFFFFF" p-id="16841"></path></svg>