<?xml version="1.0" standalone="no"?><!DOCTYPE svg PUBLIC "-//W3C//DTD SVG 1.1//EN" "http://www.w3.org/Graphics/SVG/1.1/DTD/svg11.dtd"><svg t="1726490171230" class="icon" viewBox="0 0 1024 1024" version="1.1" xmlns="http://www.w3.org/2000/svg" p-id="5425" xmlns:xlink="http://www.w3.org/1999/xlink" width="200" height="200"><path d="M833.45662 318.075039c0-48.501085-39.340651-87.881426-87.897302-87.881427H373.64093c-48.564589 0-87.90524 39.372403-87.90524 87.873489v506.911752c0 48.501085 39.340651 87.873488 87.90524 87.873488h371.918388c48.556651 0 87.897302-39.372403 87.897302-87.873488V318.067101z" fill="#FFCB01" p-id="5426"></path><path d="M865.24031 223.493953C865.24031 148.329178 804.197209 87.317829 729.024496 87.317829H287.037519C211.864806 87.317829 150.821705 148.329178 150.821705 223.493953v584.934202c0 75.164775 61.043101 136.184062 136.215814 136.184062h441.986977c75.172713 0 136.215814-61.019287 136.215814-136.184062V223.493953zM718.784496 150.821705h10.24c40.166202 0 72.711938 32.56955 72.711938 72.680186v584.934202c0 40.110636-32.545736 72.680186-72.711938 72.680186H287.037519c-40.166202 0-72.711938-32.56955-72.711938-72.680186V223.493953C214.325581 183.383318 246.871318 150.821705 287.037519 150.821705h188.685892v248.435101c0 0.277829 0.07938 0.658853 0.07938 0.936682 0 0.94462 0.15876 1.801922 0.317519 2.738605 0.07938 0.754109 0.15876 1.516155 0.317519 2.270264 0.23814 0.849364 0.476279 1.603473 0.793799 2.357581 0.23814 0.754109 0.555659 1.603473 0.952558 2.357581 0.23814 0.658853 0.714419 1.325643 1.111318 2.071814 0.476279 0.762047 0.952558 1.611411 1.508217 2.270264 0.23814 0.285767 0.317519 0.571535 0.476279 0.754108 0.317519 0.285767 0.555659 0.468341 0.873178 0.762047 0.714419 0.841426 1.587597 1.690791 2.460775 2.444899 0.555659 0.468341 1.031938 0.94462 1.587597 1.325644 0.952558 0.658853 1.905116 1.22245 2.937055 1.793984 0.555659 0.277829 1.031938 0.658853 1.666976 0.94462 1.270078 0.563597 2.460775 0.94462 3.810233 1.317706 0.476279 0.095256 0.793798 0.285767 1.270077 0.373085 1.746357 0.381023 3.492713 0.571535 5.39783 0.571535 1.587597 0 3.095814-0.190512 4.604031-0.468341 0.555659-0.103194 1.031938-0.293705 1.508217-0.381024 0.952558-0.285767 1.984496-0.563597 2.937054-0.94462 0.555659-0.190512 1.111318-0.468341 1.746357-0.754108 0.793798-0.381023 1.587597-0.849364 2.460775-1.317706l2.540155-1.706666 81.126202-64.639008 78.665426 68.226977a6.985426 6.985426 0 0 0 1.349457 0.94462c0.555659 0.468341 1.111318 0.849364 1.825737 1.325643 0.714419 0.468341 1.587597 0.849364 2.302015 1.317706 0.635039 0.285767 1.270078 0.563597 1.825737 0.849364 0.952558 0.381023 1.905116 0.658853 2.937054 0.94462 0.555659 0.182574 1.031938 0.373085 1.587597 0.468341 1.587597 0.285767 3.175194 0.476279 4.84217 0.476279 1.746357 0 3.492713-0.190512 5.15969-0.571535l0.952558-0.277829c1.349457-0.381023 2.698915-0.762047 3.968993-1.325643 0.555659-0.190512 1.031938-0.563597 1.508217-0.849365 1.031938-0.563597 1.984496-1.031938 2.937054-1.698728 0.555659-0.381023 1.031938-0.849364 1.508217-1.22245 0.793798-0.762047 1.666977-1.420899 2.460775-2.262326l0.555659-0.571535 0.873179-1.135131c0.555659-0.754109 1.031938-1.412961 1.508217-2.16707 0.317519-0.658853 0.714419-1.412961 1.111317-2.079752 0.396899-0.754109 0.714419-1.508217 1.031938-2.262326 0.23814-0.754109 0.555659-1.603473 0.714419-2.357581 0.23814-0.754109 0.396899-1.508217 0.476279-2.357581 0.23814-0.857302 0.23814-1.793984 0.317519-2.643349 0-0.476279 0.15876-0.94462 0.15876-1.420899V150.813767z m-50.88248 0v197.092217l-52.628838-45.667224c-0.07938-0.095256-0.07938-0.095256-0.158759-0.095256-0.476279-0.373085-0.952558-0.658853-1.428838-1.039876-0.317519-0.190512-0.555659-0.563597-0.952558-0.754109-0.317519-0.182574-0.555659-0.285767-0.873178-0.476279-0.317519-0.182574-0.635039-0.468341-1.031938-0.650914-0.476279-0.285767-1.031938-0.476279-1.508217-0.666791-0.396899-0.190512-0.635039-0.373085-1.031938-0.563597-0.23814-0.095256-0.635039-0.190512-0.952558-0.285767-0.396899-0.095256-0.635039-0.277829-1.031938-0.468342-0.476279-0.190512-1.031938-0.190512-1.508217-0.381023-0.396899-0.095256-0.714419-0.285767-1.190698-0.373085-0.317519-0.103194-0.714419 0-0.952558-0.103194-0.396899-0.087318-0.793798-0.182574-1.031938-0.182574-0.476279-0.095256-1.031938 0-1.587597-0.095255-0.793798 0-1.666977-0.095256-2.381395-0.095256h-0.952558c-0.555659 0-1.111318 0.190512-1.746357 0.285767-0.396899 0.087318-0.873178 0.087318-1.349457 0.190512-0.317519 0.087318-0.476279 0.190512-0.793799 0.190512-0.23814 0.087318-0.635039 0.087318-0.952558 0.182573-0.555659 0.190512-1.031938 0.381023-1.587597 0.571535-0.476279 0.182574-0.952558 0.277829-1.428837 0.468341l-0.635039 0.381023c-0.317519 0.182574-0.635039 0.277829-0.952558 0.373086-0.476279 0.285767-0.952558 0.571535-1.428837 0.94462-0.07938 0.095256-0.15876 0.190512-0.31752 0.190511-0.317519 0.190512-0.635039 0.277829-0.873178 0.468342-0.07938 0.095256-0.23814 0.190512-0.396899 0.285767-0.396899 0.285767-0.873178 0.563597-1.270078 0.849364-0.07938 0-0.07938 0.095256-0.158759 0.095256l-56.51845 45.008372V150.821705h141.613644z" p-id="5427"></path></svg>