<?xml version="1.0" standalone="no"?><!DOCTYPE svg PUBLIC "-//W3C//DTD SVG 1.1//EN" "http://www.w3.org/Graphics/SVG/1.1/DTD/svg11.dtd"><svg t="1726495146959" class="icon" viewBox="0 0 1091 1024" version="1.1" xmlns="http://www.w3.org/2000/svg" p-id="14872" xmlns:xlink="http://www.w3.org/1999/xlink" width="213.0859375" height="200"><path d="M801.6 21.9H222.4c-110.7 0-200.5 89.8-200.5 200.5v579.2c0 110.7 89.8 200.5 200.5 200.5h579.2c110.7 0 200.5-89.8 200.5-200.5V222.4c0-110.7-89.8-200.5-200.5-200.5z" fill="#FF884A" p-id="14873"></path><path d="M290.3 747.4c1.9 14.4 6.8 26.3 14.1 34.3 6.5 7.3 14.6 11.1 23.5 11.1 8.8 0 18-3.8 25.1-10.5 9.2-8.6 14.8-21.7 15.8-37 2.5-37.8-8.6-179.5-12.2-223.1 18.6-3.1 38.3-8.6 49.8-34.6 6.7-15.1 7.1-39.9 1.3-74-4.9-28.6-13.7-60.8-24.9-90.6-9-24.1-18.9-44.7-28.5-59.5-11.8-18.3-35.1-29.8-45.6-29.8-1.6 0-6.7 8.2-8.1 13-3.6 11.8-5.4 14-5.4 23.4 0 1.7 0.6 27.7 5.4 215.9 0.2 7.3 0.3 12.3 0.4 14.3-1.9 25.2-15.6 209.7-10.7 247.1zM523.1 233.5v164.1c0 28.4 31.3 74.2 71 77 8.6 22.7 12.3 42.5 11.1 59.2-3.6 52.6-11 123.3-22.3 212.1 0 13.4 17.8 44.6 46.2 44.6 28.4 0 46.2-31.2 46.2-44.6-7.4-86-14.9-156.5-22.3-211.6-2.2-16.1 1.5-36 11.1-59.7 39.5-3 70.5-48.7 70.5-77V343l0.1-109.5c-21.6 0-39.2 12.3-39.2 27.3v93.4h-47v-107c0-7.5-8.8-13.6-19.6-13.6s-19.6 6.1-19.6 13.6v107.1h-47v-93.4c0-15.1-17.6-27.4-39.2-27.4z" fill="#FFFFFF" p-id="14874"></path></svg>